<svg width="24" height="24" viewBox="0 0 24 24" fill="none" xmlns="http://www.w3.org/2000/svg">
<path d="M12.04 17.1491C14.1547 17.1491 15.726 15.8228 15.726 14.0384C15.726 12.6534 14.9057 11.6467 13.5314 11.4176V11.3324C14.6341 10.9968 15.3212 10.0913 15.3212 8.8608C15.3212 7.31605 14.1014 5.94176 12.0826 5.94176C10.1969 5.94176 8.63086 7.10298 8.56694 8.81818H9.84535C9.89329 7.73153 10.9267 7.09233 12.0613 7.09233C13.2651 7.09233 14.0428 7.82209 14.0428 8.92472C14.0428 10.0753 13.1426 10.821 11.8482 10.821H10.9746V11.9929H11.8482C13.5048 11.9929 14.4263 12.8345 14.4263 14.0384C14.4263 15.1942 13.4196 15.9773 12.0186 15.9773C10.7562 15.9773 9.75479 15.3274 9.67489 14.2727H8.33256C8.41246 15.9879 9.92525 17.1491 12.04 17.1491Z" fill="black"/>
</svg>
